name processed_emg_signals
nRows=57
nColumns=7
 
endheader
time	LGLTMED	LRF	LADDLONG	LST	LTA	LGM
0.97	0.6153067706957235	0.2117948200941844	0.0999286495592404	0.0574254387262967	0.0796261266966119	0.0723281716524238
0.971	0.6182447430374965	0.2129051550438621	0.0998055598462487	0.0571292721491248	0.0816273750254142	0.0720850472216248
0.972	0.6211578023937244	0.214108105378608	0.0997053284544248	0.0568333838516024	0.0836563594618002	0.071831834472371
0.973	0.6240420803342327	0.2154002328888022	0.0996274012252347	0.0565380483409498	0.0857097612008503	0.0715692552751608
0.974	0.6268937996631891	0.2167780619525336	0.0995712184324853	0.0562435403842618	0.0877843179738441	0.0712980680905369
0.975	0.6297092761877626	0.2182380838656217	0.0995362152736539	0.0559501350425267	0.0898768260930289	0.0710190680350508
0.976	0.632484920349399	0.2197767611419323	0.0995218223539604	0.0556581076993452	0.0919841423854544	0.0707330869153158
0.977	0.6352172387269522	0.2213905317765673	0.0995274661632914	0.0553677340835713	0.0941031860185577	0.0704409932296127
0.978	0.6379028354204972	0.223075813465434	0.0995525695464192	0.0550792902849933	0.0962309402201826	0.0701436921366001
0.979	0.6405384133243814	0.2248290077741688	0.0995965521671639	0.0547930527625125	0.0983644538958751	0.0698421253906963
0.98	0.6431207752978116	0.2266465042502648	0.0996588309670069	0.0545092983440644	0.1005008431462357	0.0695372712437315
0.981	0.6456468252413785	0.2285246844723609	0.0997388206189556	0.0542283042180367	0.1026372926873737	0.0692301443124239
0.982	0.6481135690880471	0.2304599260304664	0.0998359339772345	0.0539503479158312	0.1047710571774702	0.0689217954111312
0.983	0.6505181157173342	0.2324486064323475	0.0999495825234492	0.0536757072857112	0.1068994624526805	0.0686133113493056
0.984	0.6528576778006926	0.2344871069306819	0.1000791768100524	0.0534046604579635	0.1090199066755715	0.068305814692916
0.985	0.6551295725850381	0.2365718162669856	0.1002241269015345	0.0531374858015699	0.1111298613993589	0.0680004634891404
0.986	0.657331222619604	0.2386991343282615	0.1003838428141151	0.0528744618725582	0.1132268725510351	0.0676984509536054
0.987	0.6594601564295101	0.2408654757122023	0.1005577349541848	0.0526158673539948	0.115308561336498	0.067401005119499
0.988	0.6615140091372904	0.2430672731979411	0.1007452145559464	0.0523619809877305	0.1173726250706093	0.0671093884479885
0.989	0.6634905230318294	0.2453009811195058	0.1009456941184312	0.0521130814976821	0.1194168379350136	0.0668248973994207
0.99	0.6653875480824296	0.2475630786401816	0.1011585878419476	0.0518694475045231	0.1214390516662937	0.0665488619648492
0.991	0.6672030423944217	0.2498500729262852	0.1013833120637883	0.0516313574315695	0.1234371961768322	0.0662826451574507
0.992	0.668935072601686	0.2521585022193273	0.1016192856929342	0.0513990894018539	0.1254092801103512	0.0660276424635059
0.993	0.6705818141908761	0.2544849388059589	0.1018659306430925	0.0511729211263306	0.1273533913339367	0.0657852812527708
0.994	0.6721415517517684	0.2568259918850192	0.1021226722635826	0.0509531297835673	0.1292676973680143	0.0655570201482299
0.995	0.6736126791477675	0.2591783103315336	0.1023889397673205	0.0507399918911531	0.1311504457555829	0.0653443483553662
0.996	0.6749936995997243	0.2615385853581167	0.1026641666551823	0.0505337831692714	0.1329999643717429	0.0651487849510952
0.997	0.6762832256751699	0.263903553074953	0.1029477911359452	0.0503347783967401	0.1348146616743838	0.0649718781325116
0.998	0.677479979174185	0.2662699969507235	0.1032392565407545	0.0501432512599056	0.1365930268967481	0.0648152044254282
0.999	0.6785827909023926	0.268634750177373	0.1035380117308915	0.0499594741945094	0.138333630182606	0.0646803678526004
1.0	0.6795906003215822	0.2709946979420712	0.1038435114978634	0.0497837182207824	0.1400351226648364	0.0645689990614022
1.0010000000000001	0.6805024550689147	0.27334677960966	0.1041552169542872	0.0496162527716612	0.1416962364881659	0.0644827544108136
1.002	0.6813175103369303	0.2756879908187685	0.1044725959144102	0.0494573455142984	0.1433157847769222	0.064423315017701
1.0030000000000001	0.6820350281082251	0.2780153854933377	0.1047951232630183	0.0493072621646577	0.1448926615485306	0.0643923857625809
1.004	0.682654376240056	0.2803260777713726	0.1051222813115891	0.0491662662952042	0.1464258415733053	0.0643916942552314
1.0050000000000001	0.6831750273952796	0.282617243851772	0.1054535601404322	0.049034619135557	0.147914380180895	0.0644229897604545
1.006	0.6835965578162359	0.284886123759504	0.1057884579257986	0.048912579365997	0.1493574130134589	0.0644880420842908
1.0070000000000001	0.6839186459376987	0.2871300230300511	0.1061264812506065	0.0488004029037619	0.150754155725403	0.0645886404207672
1.008	0.6841410708339832	0.2893463143130342	0.106467145397468	0.0486983426821795	0.1521039036291301	0.0647265921592072
1.0090000000000001	0.6842637104943182	0.2915324388967738	0.1068099746227352	0.0486066484225822	0.1534060312859761	0.0649037216520494
1.01	0.6842865399202098	0.2936859081549807	0.1071545024099391	0.0485255663989729	0.1546599920411874	0.0651218689430682
1.0110000000000001	0.6842096290384204	0.2958043049187026	0.107500271701194	0.0484553391953851	0.1558653175017277	0.0653828884559949
1.012	0.6840331404234893	0.2978852847760987	0.1078468351052233	0.0483962054557223	0.1570216169555131	0.0656886476435388
1.0130000000000001	0.683757326824727	0.2999265773033387	0.1081937550807698	0.0483483996258334	0.1581285767307115	0.0660410255969508
1.014	0.6833825284943854	0.3019259872291993	0.1085406040945403	0.0483121516875874	0.1591859594936104	0.0664419116162672
1.0150000000000001	0.6829091703161548	0.3038813955363314	0.1088869647529567	0.0482876868847027	0.1601936034836626	0.066893203741509
1.016	0.6823377587359648	0.3057907605017925	0.109232429907511	0.0482752254401805	0.161151421684155	0.0673968072451216
1.0170000000000001	0.6816688784999525	0.3076521186799478	0.109576602733926	0.0482749822654451	0.1620594009270186	0.0679546330860334
1.018	0.6809031892074928	0.3094635858304104	0.109919096785589	0.0482871666612287	0.1629176009303716	0.0685685963256363
1.0190000000000001	0.6800414216891129	0.3112233577939737	0.1102595360221085	0.0483119820106531	0.1637261532673875	0.069240614506012
1.02	0.6790843742204231	0.3129297113188649	0.1105975548142591	0.048349625464824	0.1644852602651818	0.0699726059906308
1.0210000000000001	0.6780329085839825	0.3145810048389101	0.1109327979264414	0.0484002876214091	0.1651951938322299	0.0707664882676724
1.022	0.6768879459920584	0.3161756792041974	0.1112649204786145	0.0484641521967304	0.1658562942127179	0.071624176216073
1.0230000000000001	0.675650462884211	0.3177122583643706	0.111593587889313	0.0485413956919848	0.1664689686662621	0.0725475803343238
1.024	0.6743214866145766	0.3191893500035888	0.1119184758022896	0.0486321870541974	0.1670336900717081	0.0735386049320761
1.025	0.6729020910445803	0.3206056461258256	0.112239269998874	0.0487366873326642	0.1675509954543445	0.0745991462845868
1.026	0.6713933920575164	0.3219599235888229	0.11255566629856	0.0488550493316532	0.1680214844367443	0.0757310907500329
